<svg xmlns="http://www.w3.org/2000/svg" viewBox="0 0 600 600" fill="none" shape-rendering="auto" aria-hidden="true"><metadata xmlns:rdf="http://www.w3.org/1999/02/22-rdf-syntax-ns#" xmlns:xsi="http://www.w3.org/2001/XMLSchema-instance" xmlns:dc="http://purl.org/dc/elements/1.1/" xmlns:dcterms="http://purl.org/dc/terms/"><rdf:RDF><rdf:Description><dc:title>Lorelei Neutral</dc:title><dc:creator>Lisa Wischofsky</dc:creator><dc:source xsi:type="dcterms:URI">https://www.figma.com/community/file/1198749693280469639</dc:source><dcterms:license xsi:type="dcterms:URI">https://creativecommons.org/publicdomain/zero/1.0/</dcterms:license><dc:rights>Remix of “Lorelei Neutral” (https://www.figma.com/community/file/1198749693280469639) by “Lisa Wischofsky”, licensed under “CC0 1.0” (https://creativecommons.org/publicdomain/zero/1.0/)</dc:rights></rdf:Description></rdf:RDF></metadata><defs><g id="eyebrows-variant03-7fcc74a2"><path d="M119 47q15-1 29 3t23 18q5 12-6 20-11 4-23 2-31-6-61-14l-20-4-10-3q-2 0-3-4 2-5 9-7l20-7 18-3zm176 5q12 2 23 7l8 5q4 3 1 7-4 4-9 5-26 8-52 12l-9 1-8-4q-4-4-4-10 0-12 8-20 8-4 16-4 14-2 26 1" fill="#000000"/></g><g id="eyes-variant12-7fcc74a2"><path d="M124 11q11 3 19 13h-5l-38-10H67c0-4 6-5 9-6q25-6 48 3m195 1 2 2-18 2q-14 2-26 8l-6 3q-1-6 5-7 6-5 15-8 14-5 28 0m5 10q10 1 17 7 5 6 1 14-4 5-11 2-3-4-4-9-12-6-24-1l6 6q5 8 1 16-7 15-24 13-11-2-13-14l-8 10-4 5q-3-4-1-10 9-17 25-29 18-12 39-10M91 25q36 3 66 26 7 4 10 13 0 5-4 6-4-2-6-5l-12-9q1 11-5 20-5 7-13 7-13 1-22-8c-9-10-8-26 0-36q-13-3-28-2-9 1-15 8-2 2-2 6-2 7-9 6t-9-7q-2-8 5-14 8-7 19-9 12-3 25-2" fill="#000000"/></g><g id="mouth-sad03-7fcc74a2"><path d="M168 113q11-1 20 3-6 4-13 4l-43 12q-4 1-7-1 0-3 4-6 8-5 19-8z" fill="#000000"/></g><g id="nose-variant04-7fcc74a2"><path d="M39 67a37 37 0 0 1 19 29q-1 15-13 22-9 5-18 7-4 2-8 0-2-3 1-6l21-12q5-3 5-9c0-10-5-17-7-26z" fill="#000000"/></g><g id="glasses-variant01-7fcc74a2"><path d="M72 15q28-18 62-14 20 3 37 15 4-4 10 0 18 13 29 34 14 26 9 55 15-9 31-4c-2-34 16-69 44-87q17-13 39-12 14 0 27 6c3 2 6 0 9 3q14 9 23 26 12 23 8 50c-4 29-20 57-45 72q-22 14-47 11-20-3-35-17-14-12-19-31-3-6-9-8-15-4-26 5l-5 7q-12 30-39 46a99 99 0 0 1-57 15c-31-2-60-19-76-45A92 92 0 0 1 72 15m97 4q-31-14-63-7c-27 7-50 26-60 52a81 81 0 0 0 24 90c20 18 49 25 75 18q30-7 48-32c16-23 19-54 8-79q-9-20-27-33l-5-5zm187-3q-12-5-26-3-23 3-41 19a88 88 0 0 0-25 77q4 22 19 36 13 11 30 13 21 0 38-12c26-18 41-51 36-82q-3-22-19-38-5-2-8-6z" fill="#000000"/></g><clipPath id="clip-7fcc74a2"><rect width="600" height="600" rx="0" ry="0"/></clipPath></defs><g clip-path="url(#clip-7fcc74a2)"><rect width="600" height="600" fill="#ffffff"/><use transform="translate(115 124)" href="#eyebrows-variant03-7fcc74a2"/><use transform="translate(109 229)" href="#eyes-variant12-7fcc74a2"/><use transform="translate(173 400)" href="#mouth-sad03-7fcc74a2"/><use transform="translate(309 271)" href="#nose-variant04-7fcc74a2"/><use transform="translate(102 195)" href="#glasses-variant01-7fcc74a2"/></g></svg>