<svg xmlns="http://www.w3.org/2000/svg" viewBox="0 0 600 600" fill="none" shape-rendering="auto" aria-hidden="true"><metadata xmlns:rdf="http://www.w3.org/1999/02/22-rdf-syntax-ns#" xmlns:xsi="http://www.w3.org/2001/XMLSchema-instance" xmlns:dc="http://purl.org/dc/elements/1.1/" xmlns:dcterms="http://purl.org/dc/terms/"><rdf:RDF><rdf:Description><dc:title>Lorelei Neutral</dc:title><dc:creator>Lisa Wischofsky</dc:creator><dc:source xsi:type="dcterms:URI">https://www.figma.com/community/file/1198749693280469639</dc:source><dcterms:license xsi:type="dcterms:URI">https://creativecommons.org/publicdomain/zero/1.0/</dcterms:license><dc:rights>Remix of “Lorelei Neutral” (https://www.figma.com/community/file/1198749693280469639) by “Lisa Wischofsky”, licensed under “CC0 1.0” (https://creativecommons.org/publicdomain/zero/1.0/)</dc:rights></rdf:Description></rdf:RDF></metadata><defs><g id="eyebrows-variant11-7ecc730f"><path d="M135 18q16 1 27 10 5 5 6 11-16-7-33-5-9 1-17 6C95 52 76 69 53 82L33 96l-11 10q-2-6 1-14 7-14 20-23 11-10 24-17l40-27q13-7 28-7m205 35q-8 4-17 4-8 1-14 7l-24 23q-12 16-28 25l-8 2-6 1c-4 5-4 13-9 17q-3-1-2-3v-12q1-9 7-17l14-7 14-11 23-18q10-8 21-12 15-5 29 1" fill="#000000"/></g><g id="eyes-variant23-7ecc730f"><path d="M310 10q11-3 22 3 9 6 10 16l18 3q-8 6-17 6-8 0-16-4-4-5-9-8-9-4-18-1 5 4 8 11 4 17-2 36l9-5q2 8-4 13-14 12-33 9-7 0-13-6l-2-12q-2-7 0-13a70 70 0 0 1 47-48M102 21c26 1 52 17 64 41q3 5 1 10-4-2-7-6-9-15-24-24-14-8-31-8 9 16 7 33-1 15-11 24l9 5q-9 4-19 1-17-3-29-14-14-10-19-26-23 2-43-7 3-3 8-2l28-5q6 1 11-3 24-20 55-19" fill="#000000"/></g><g id="mouth-happy01-7ecc730f"><path d="m216 17-6 8q-11 12-23 22-12 11-27 17-17 5-35 2-24-1-45-12l-12-7q-2-2 0-5 5-1 9 1 18 7 37 10 26 4 50-3 12-3 21-11l23-17z" fill="#000000"/></g><g id="nose-variant01-7ecc730f"><path d="m42 0 3 15 3 26 8 13 6 12 5 14q5 7 5 16-1 15-14 20l-19 8q-7 5-15 5-8 1-14-5-1-3 3-5l12-3 16-5 13-5q10-4 7-14l-5-8-7-17-7-19q-6-12-5-26 0-11 4-22" fill="#000000"/></g><clipPath id="clip-7ecc730f"><rect width="600" height="600" rx="0" ry="0"/></clipPath></defs><g clip-path="url(#clip-7ecc730f)"><rect width="600" height="600" fill="#ffffff"/><use transform="translate(115 124)" href="#eyebrows-variant11-7ecc730f"/><use transform="translate(109 229)" href="#eyes-variant23-7ecc730f"/><use transform="translate(173 400)" href="#mouth-happy01-7ecc730f"/><use transform="translate(309 271)" href="#nose-variant01-7ecc730f"/></g></svg>